<svg width="24" height="24" fill="none" xmlns="http://www.w3.org/2000/svg"><g clip-path="url(#a)"><path d="M0 12C0 5.373 5.373 0 12 0s12 5.373 12 12-5.373 12-12 12S0 18.627 0 12Z" fill="#FFC060"/><path d="m5 8.085.124-.386 4.225 4.302-4.225 4.3L5 15.915v-7.83Zm14.245 7.83-.124.386-4.224-4.303L19.121 7.7l.123.385v7.83Zm-.725-8.786c-.037.039-.067.073-.1.105l-5.353 5.317c-.385.383-.837.532-1.357.342a1.46 1.46 0 0 1-.507-.326c-1.804-1.78-3.6-3.566-5.397-5.352-.026-.026-.05-.054-.098-.108.174-.038.324-.073.476-.101.053-.01.11-.004.166-.004L17.895 7c.215 0 .422.022.625.128Z" fill="#fff"/><path d="m5.747 16.918 4.284-4.359c.125.134.221.252.332.355.21.194.408.411.646.564.844.544 1.885.411 2.62-.31.192-.188.379-.38.586-.588l4.25 4.328c-.1.022-.25.057-.4.086-.053.01-.11.004-.166.004-3.852 0-7.704.002-11.557-.003-.203 0-.407-.052-.595-.077Z" fill="#fff"/></g><defs><clipPath id="a"><path fill="#fff" d="M0 0h24v24H0z"/></clipPath></defs></svg>