<svg width="108" height="81" fill="none" xmlns="http://www.w3.org/2000/svg"><path d="M54.825 29.353c5.06.283 8.822 2.554 10.946 7.189 1.335 2.912 3.28 5.176 6.145 6.606 5.037 2.514 5.113 8.241 2.177 11.776-2.932 3.531-7.95 4.109-11.562 1.281-2.29-1.794-4.822-2.829-7.742-2.816-2.789.011-5.285.898-7.438 2.673-4.497 3.708-10.993 1.792-13.1-3.32-1.609-3.909-.125-7.755 3.268-9.453 3.012-1.507 5.046-3.862 6.464-6.92 2.115-4.562 5.898-6.738 10.842-7.016Zm-.053 1.85c-.557.065-1.175.094-1.773.216-3.62.734-6.14 2.834-7.606 6.21-.872 2.008-2.095 3.776-3.803 5.137-1.089.867-2.307 1.58-3.502 2.304-1.58.956-2.55 2.314-2.61 4.154-.09 2.761 1.122 4.887 3.579 6.16 2.442 1.267 4.834 1.028 7.015-.678 5.415-4.239 12.067-4.247 17.512.003 2.643 2.062 6.131 1.902 8.57-.406 2.57-2.432 3.275-7.365-1.133-9.548-3.284-1.625-5.478-4.255-6.998-7.582-1.772-3.876-4.98-5.735-9.251-5.97Z" fill="#fff"/><path d="M52.99 22.028c-.046 2.306-.508 4.5-1.826 6.442-1.075 1.585-2.488 2.693-4.483 2.753-2.126.065-3.646-1.054-4.779-2.734-1.558-2.313-1.996-4.914-1.779-7.647.152-1.904.672-3.701 1.762-5.294 1.094-1.598 2.52-2.714 4.542-2.753 2.1-.04 3.592 1.079 4.724 2.733 1.336 1.954 1.799 4.17 1.84 6.5Zm-11.077-.401c-.002 2.643.692 4.832 1.86 6.248 1.66 2.01 3.818 2.03 5.474.032 1.171-1.412 1.688-3.093 1.835-4.884.207-2.527-.22-4.917-1.867-6.94-1.596-1.96-3.781-1.944-5.393.008-1.413 1.713-1.85 3.754-1.91 5.536Zm27.687.383c-.048 2.33-.512 4.525-1.83 6.466-1.077 1.583-2.491 2.69-4.486 2.747-2.127.062-3.645-1.059-4.776-2.74-1.557-2.313-1.994-4.915-1.775-7.647.152-1.904.673-3.701 1.764-5.293 1.095-1.598 2.523-2.712 4.545-2.748 2.1-.037 3.59 1.084 4.72 2.739 1.337 1.954 1.796 4.17 1.837 6.475Zm-11.078-.389c-.003 2.669.7 4.867 1.893 6.294 1.645 1.969 3.794 1.975 5.437-.003 1.172-1.412 1.69-3.091 1.838-4.883.209-2.527-.218-4.917-1.862-6.941-1.595-1.963-3.781-1.95-5.393-.002-1.415 1.712-1.853 3.753-1.913 5.535ZM41.91 34.334c-.037 1.741-.534 3.646-1.741 5.327-2.455 3.42-6.573 3.544-9.222.282-2.639-3.25-2.588-8.8.109-12.001 2.614-3.103 6.619-2.967 9.041.308 1.18 1.594 1.819 3.633 1.813 6.084Zm-11.07-.675c-.002 2.403.704 4.338 1.905 5.562 1.622 1.65 3.781 1.662 5.399.011 1.183-1.207 1.724-2.712 1.87-4.356.2-2.244-.237-4.338-1.821-6.039-1.616-1.734-3.837-1.727-5.471-.016-1.378 1.444-1.828 3.241-1.882 4.838Zm36.909-.016c.048-1.955.656-4.071 2.195-5.86 2.323-2.702 5.958-2.777 8.378-.17 2.998 3.229 3.137 9.072.296 12.439-2.642 3.13-6.655 2.989-9.077-.32-1.165-1.591-1.793-3.6-1.792-6.089Zm1.834.326c.058 1.987.522 3.837 1.976 5.305 1.586 1.601 3.725 1.588 5.314-.016 1.19-1.2 1.74-2.702 1.891-4.346.21-2.287-.234-4.414-1.872-6.131-1.592-1.67-3.784-1.65-5.39.014-1.387 1.436-1.845 3.231-1.92 5.174ZM49.292 3.832c-.108 1.133.133 2.478.708 3.802.503 1.156.216 2.283-.639 3.2-.799.857-1.803 1.23-2.975.916-.979-.262-1.688-1.143-1.696-2.156-.024-3.15.993-5.947 2.932-8.418.26-.332.607-.477 1.02-.34.43.144.646.465.65.919.003.595 0 1.19 0 2.077Zm-1.97 1.493a10.82 10.82 0 0 0-.787 4.137c.005.44.306.591.712.537.841-.112 1.306-.993 1.009-1.837-.329-.934-.62-1.88-.934-2.837Zm17.65 3.563c.032 1.715-.734 2.745-2.018 2.949-1.432.228-2.979-.81-3.387-2.274-.192-.689-.198-1.385.116-2.028.574-1.173.744-2.405.689-3.692-.029-.67 0-1.344-.007-2.016-.004-.474.182-.827.639-.984.465-.16.812.043 1.098.41 1.8 2.315 2.754 4.938 2.87 7.635ZM62.335 5.34c-.312.948-.628 1.925-.956 2.898-.265.789.196 1.616.997 1.754.398.068.735-.055.744-.495a10.351 10.351 0 0 0-.785-4.157ZM36.374 16.749c-.108 1.131.13 2.476.707 3.8.503 1.156.216 2.282-.636 3.202-.781.843-1.767 1.217-2.919.932a2.283 2.283 0 0 1-1.757-2.225c-.006-3.128 1.007-5.908 2.933-8.362.26-.332.606-.478 1.019-.342.43.142.648.462.652.916.004.596 0 1.19 0 2.079Zm-1.972 1.496a11.011 11.011 0 0 0-.789 4.048c0 .502.31.721.8.611.795-.18 1.207-.998.932-1.796-.33-.953-.633-1.916-.943-2.863Zm43.488 3.571c.033 1.721-.763 2.773-2.067 2.947-1.429.19-2.93-.833-3.336-2.274-.193-.688-.203-1.384.11-2.028.573-1.173.749-2.404.693-3.691-.03-.671 0-1.344-.007-2.016-.005-.473.175-.83.631-.99.465-.165.814.034 1.1.401 1.802 2.314 2.76 4.936 2.876 7.65Zm-2.638-3.553c-.311.945-.628 1.924-.956 2.898-.265.788.202 1.617 1.002 1.75.4.067.732-.06.74-.5a10.29 10.29 0 0 0-.786-4.148ZM5.463 65.382c.696 0 1.308.156 1.836.468.54.312.954.756 1.242 1.332.3.564.45 1.212.45 1.944 0 .72-.15 1.356-.45 1.908a3.152 3.152 0 0 1-1.242 1.296c-.528.3-1.134.45-1.818.45H3.267c-.06 0-.09.03-.09.09v4.914c0 .06-.024.114-.072.162A.195.195 0 0 1 2.96 78H1.305a.263.263 0 0 1-.162-.054.263.263 0 0 1-.054-.162V65.598c0-.06.018-.108.054-.144a.224.224 0 0 1 .162-.072h4.158Zm-.306 5.724c.528 0 .948-.174 1.26-.522.324-.36.486-.834.486-1.422 0-.6-.162-1.08-.486-1.44-.312-.36-.732-.54-1.26-.54h-1.89c-.06 0-.09.03-.09.09v3.744c0 .06.03.09.09.09h1.89ZM16.647 78c-.132 0-.216-.06-.252-.18l-1.944-5.166c-.024-.048-.054-.072-.09-.072h-1.548c-.06 0-.09.03-.09.09v5.112c0 .06-.024.114-.072.162a.195.195 0 0 1-.144.054h-1.656a.263.263 0 0 1-.162-.054.263.263 0 0 1-.054-.162V65.616c0-.06.018-.108.054-.144a.224.224 0 0 1 .162-.072h4.158c.684 0 1.29.156 1.818.468.528.3.936.732 1.224 1.296.288.552.432 1.188.432 1.908 0 .78-.18 1.458-.54 2.034a2.95 2.95 0 0 1-1.476 1.224c-.06.024-.078.066-.054.126l2.124 5.292a.25.25 0 0 1 .018.108c0 .096-.06.144-.18.144h-1.728Zm-3.834-10.8c-.06 0-.09.03-.09.09v3.582c0 .06.03.09.09.09h1.89c.504 0 .912-.168 1.224-.504.312-.348.468-.804.468-1.368 0-.576-.156-1.032-.468-1.368-.312-.348-.72-.522-1.224-.522h-1.89ZM20.52 78a.263.263 0 0 1-.162-.054.263.263 0 0 1-.054-.162V65.616c0-.06.018-.108.054-.144a.224.224 0 0 1 .162-.072h1.656c.06 0 .108.024.144.072a.171.171 0 0 1 .072.144v12.168c0 .06-.024.114-.072.162a.195.195 0 0 1-.144.054H20.52Zm4.377 0a.263.263 0 0 1-.162-.054.263.263 0 0 1-.054-.162V65.616c0-.06.018-.108.054-.144a.224.224 0 0 1 .162-.072h3.726c1.164 0 2.094.324 2.79.972.708.648 1.062 1.512 1.062 2.592v5.472c0 1.08-.354 1.944-1.062 2.592-.696.648-1.626.972-2.79.972h-3.726Zm1.872-1.89c0 .06.03.09.09.09l1.782-.018c.516 0 .93-.174 1.242-.522.312-.36.48-.846.504-1.458v-5.004c0-.612-.162-1.098-.486-1.458-.312-.36-.732-.54-1.26-.54h-1.782c-.06 0-.09.03-.09.09v8.82Zm15.084-9.126c0 .06-.024.114-.072.162a.195.195 0 0 1-.144.054h-5.004c-.06 0-.09.03-.09.09v3.384c0 .06.03.09.09.09h3.204c.06 0 .108.024.144.072a.171.171 0 0 1 .072.144v1.368c0 .06-.024.114-.072.162a.195.195 0 0 1-.144.054h-3.204c-.06 0-.09.03-.09.09v3.456c0 .06.03.09.09.09h5.004c.06 0 .108.024.144.072a.171.171 0 0 1 .072.144v1.368c0 .06-.024.114-.072.162a.195.195 0 0 1-.144.054H34.67a.263.263 0 0 1-.162-.054.263.263 0 0 1-.054-.162V65.616c0-.06.018-.108.054-.144a.224.224 0 0 1 .162-.072h6.966c.06 0 .108.024.144.072a.171.171 0 0 1 .072.144v1.368Zm5.038 6.498a.263.263 0 0 1-.162-.054.263.263 0 0 1-.054-.162v-1.368c0-.06.018-.108.054-.144a.224.224 0 0 1 .162-.072h5.058c.06 0 .108.024.144.072a.171.171 0 0 1 .072.144v1.368c0 .06-.024.114-.072.162a.195.195 0 0 1-.144.054H46.89ZM63.908 78c-.132 0-.216-.06-.252-.18l-.468-1.926c-.012-.048-.042-.072-.09-.072H59.39c-.048 0-.078.024-.09.072l-.45 1.926c-.036.12-.12.18-.252.18h-1.71c-.156 0-.216-.078-.18-.234l3.276-12.186c.036-.12.12-.18.252-.18h2.052c.132 0 .216.06.252.18l3.276 12.186.018.072c0 .108-.066.162-.198.162h-1.728Zm-4.176-3.924c-.012.036-.006.066.018.09a.16.16 0 0 0 .072.018h2.844a.16.16 0 0 0 .072-.018c.024-.024.03-.054.018-.09l-1.476-5.904c-.012-.036-.03-.054-.054-.054s-.042.018-.054.054l-1.44 5.904Zm11.037 4.068c-.78 0-1.47-.156-2.07-.468a3.536 3.536 0 0 1-1.404-1.35c-.324-.576-.486-1.242-.486-1.998v-5.292c0-.756.162-1.416.486-1.98a3.415 3.415 0 0 1 1.404-1.332c.6-.312 1.29-.468 2.07-.468.78 0 1.47.156 2.07.468.6.3 1.062.732 1.386 1.296.336.552.504 1.2.504 1.944v.108c0 .06-.024.114-.072.162a.171.171 0 0 1-.144.072l-1.674.072c-.144 0-.216-.072-.216-.216v-.216c0-.564-.174-1.02-.522-1.368-.336-.348-.78-.522-1.332-.522-.564 0-1.02.174-1.368.522-.336.348-.504.804-.504 1.368v5.526c0 .564.168 1.02.504 1.368.348.336.804.504 1.368.504.552 0 .996-.168 1.332-.504.348-.348.522-.804.522-1.368v-.234c0-.132.072-.198.216-.198l1.674.072c.06 0 .108.024.144.072a.171.171 0 0 1 .072.144v.072c0 .744-.168 1.404-.504 1.98a3.331 3.331 0 0 1-1.386 1.314c-.6.3-1.29.45-2.07.45Zm13.2-12.744a.17.17 0 0 1 .143.072.171.171 0 0 1 .072.144v1.386c0 .06-.024.114-.072.162a.195.195 0 0 1-.144.054h-2.79c-.06 0-.09.03-.09.09v10.476c0 .06-.024.114-.072.162a.195.195 0 0 1-.144.054h-1.656a.263.263 0 0 1-.162-.054.263.263 0 0 1-.054-.162V67.308c0-.06-.03-.09-.09-.09h-2.682a.263.263 0 0 1-.162-.054.263.263 0 0 1-.054-.162v-1.386c0-.06.018-.108.054-.144a.224.224 0 0 1 .162-.072h7.74ZM86.102 78a.263.263 0 0 1-.162-.054.263.263 0 0 1-.054-.162V65.616c0-.06.018-.108.054-.144a.224.224 0 0 1 .162-.072h1.656c.06 0 .108.024.144.072a.171.171 0 0 1 .072.144v12.168c0 .06-.024.114-.072.162a.195.195 0 0 1-.144.054h-1.656Zm6.97 0c-.133 0-.217-.06-.253-.18l-3.186-12.186v-.072c0-.108.066-.162.198-.162h1.782c.12 0 .198.06.234.18l2.124 9.054c.012.048.03.072.054.072s.042-.024.054-.072l2.07-9.036c.036-.132.114-.198.234-.198h1.746c.156 0 .216.078.18.234L95.124 77.82c-.036.12-.12.18-.252.18h-1.8Zm14.24-11.016c0 .06-.024.114-.072.162a.195.195 0 0 1-.144.054h-5.004c-.06 0-.09.03-.09.09v3.384c0 .06.03.09.09.09h3.204c.06 0 .108.024.144.072a.171.171 0 0 1 .072.144v1.368c0 .06-.024.114-.072.162a.195.195 0 0 1-.144.054h-3.204c-.06 0-.09.03-.09.09v3.456c0 .06.03.09.09.09h5.004c.06 0 .108.024.144.072a.171.171 0 0 1 .072.144v1.368c0 .06-.024.114-.072.162a.195.195 0 0 1-.144.054h-6.966a.265.265 0 0 1-.162-.054.263.263 0 0 1-.054-.162V65.616c0-.06.018-.108.054-.144a.225.225 0 0 1 .162-.072h6.966c.06 0 .108.024.144.072a.171.171 0 0 1 .072.144v1.368Z" fill="#fff"/></svg>