<svg width="24" height="24" fill="none" xmlns="http://www.w3.org/2000/svg"><path d="M4.553 3.573c-.705.239-1.384.465-2.062.678-.705.226-1.357-.173-1.477-.878-.08-.479.186-.998.665-1.17 1.144-.4 2.302-.786 3.472-1.158.599-.186 1.21.226 1.344.865.12.545.213 1.077.332 1.663.36-.067.705-.134 1.038-.2 1.543-.306 3.086-.612 4.63-.905.718-.133 1.25.213 1.396.932.213 1.024.4 2.048.599 3.086.013.08.026.146.053.253a52.034 52.034 0 0 0 1.53-.293c.306-.053.612-.12.918-.186.745-.133 1.277.213 1.423.957.32 1.623.639 3.26.958 4.883l.678 3.485c0 .027.027.066.04.12.492-.08.985-.173 1.477-.24.173-.026.36-.066.545-.053a1.09 1.09 0 0 1 1.011 1.038c.027.585-.346 1.05-.93 1.157-.64.12-1.278.213-1.917.32l-5.76.957c-.771.133-1.556.266-2.328.386-.16.027-.212.093-.239.24-.412 1.675-2.035 2.78-3.698 2.514-1.756-.28-2.98-1.796-2.834-3.552.08-1.025.559-1.85 1.397-2.448.16-.12.213-.213.173-.412-.798-3.938-1.583-7.862-2.368-11.8-.013-.053-.04-.133-.066-.24Zm13.342 12.53c-.492-2.5-.97-4.961-1.45-7.449-2.767.532-5.52 1.051-8.287 1.583.346 1.703.678 3.38.997 5.042.027.16.107.213.253.24.891.186 1.583.665 2.089 1.423.106.16.2.2.399.173 1.197-.213 2.408-.4 3.605-.599.785-.146 1.57-.28 2.394-.412Zm-5.973-11.24c-1.556.306-3.1.599-4.656.904.16.772.306 1.517.466 2.289 1.556-.306 3.1-.6 4.643-.905-.16-.785-.306-1.53-.453-2.288ZM7.626 18.75a1.11 1.11 0 0 0 1.09 1.117c.599.014 1.105-.492 1.105-1.104 0-.612-.493-1.104-1.091-1.117-.612 0-1.104.492-1.104 1.104Z" fill="#fff"/></svg>