<svg width="24" height="24" viewBox="0 0 24 24" fill="none" xmlns="http://www.w3.org/2000/svg">
<g clip-path="url(#clip0_1488_416)">
<path d="M0 12C0 5.37258 5.37258 0 12 0C18.6274 0 24 5.37258 24 12C24 18.6274 18.6274 24 12 24C5.37258 24 0 18.6274 0 12Z" fill="#FFC060"/>
<path d="M5 8.08472C5.03774 7.96755 5.07548 7.85038 5.12425 7.69896C6.55623 9.15698 7.96967 10.5961 9.34897 12.0005C7.97445 13.3995 6.55845 14.8407 5.12389 16.3008C5.07533 16.1497 5.03766 16.0325 5 15.9153C5 13.3051 5 10.6949 5 8.08472Z" fill="white"/>
<path d="M19.2455 15.9153C19.2077 16.0325 19.17 16.1497 19.1213 16.3011C17.6896 14.843 16.2763 13.4036 14.8965 11.9984C16.2707 10.6004 17.6871 9.15958 19.1217 7.70033C19.17 7.85038 19.2077 7.96755 19.2455 8.08472C19.2455 10.6949 19.2455 13.3051 19.2455 15.9153Z" fill="white"/>
<path d="M18.5196 7.12866C18.4829 7.1679 18.4528 7.20217 18.4205 7.23424C16.636 9.00668 14.8512 10.7789 13.0666 12.5513C12.6818 12.9335 12.2296 13.0826 11.71 12.8934C11.5251 12.826 11.3437 12.706 11.203 12.5673C9.39942 10.7878 7.60347 9.0005 5.80578 7.21498C5.78004 7.18942 5.75693 7.16124 5.70801 7.10705C5.88202 7.06943 6.03215 7.03411 6.18359 7.00578C6.23749 6.9957 6.29457 7.00186 6.35019 7.00186C10.1985 7.00175 14.0469 7.00203 17.8952 7.00103C18.1096 7.00097 18.317 7.02348 18.5196 7.12866Z" fill="white"/>
<path d="M5.74707 16.9181C7.18176 15.4584 8.59331 14.0224 10.0315 12.5592C10.1559 12.6934 10.2523 12.811 10.3627 12.9135C10.5726 13.1082 10.7706 13.3251 11.0088 13.4784C11.8533 14.0219 12.8941 13.8891 13.6298 13.1674C13.8209 12.98 14.0078 12.7883 14.2152 12.5799C15.6388 14.0293 17.0522 15.4684 18.4659 16.9076C18.3648 16.9299 18.2159 16.9655 18.0658 16.9941C18.0119 17.0043 17.9548 16.9982 17.8992 16.9982C14.0469 16.9983 10.1946 16.9995 6.34236 16.9948C6.13857 16.9945 5.93485 16.9434 5.74707 16.9181Z" fill="white"/>
</g>
<defs>
<clipPath id="clip0_1488_416">
<rect width="24" height="24" fill="white"/>
</clipPath>
</defs>
</svg>
