<svg width="108" height="81" viewBox="0 0 108 81" fill="none" xmlns="http://www.w3.org/2000/svg">
<path d="M54.8253 29.3528C59.8854 29.636 63.6467 31.9067 65.7708 36.5418C67.1055 39.4541 69.0504 41.7178 71.9163 43.1484C76.9532 45.6625 77.0292 51.3891 74.0934 54.9244C71.1614 58.4553 66.1421 59.0329 62.5314 56.205C60.2405 54.4107 57.709 53.3762 54.7888 53.3885C52.0003 53.4003 49.5036 54.2869 47.3511 56.0617C42.8536 59.7698 36.3579 57.8536 34.2519 52.7414C32.642 48.8333 34.1263 44.9867 37.519 43.2891C40.5306 41.7823 42.5645 39.4273 43.9827 36.369C46.0984 31.8068 49.8811 29.631 54.8253 29.3528ZM54.7719 31.2031C54.2153 31.2684 53.5975 31.2971 52.9986 31.4186C49.3782 32.153 46.8591 34.2528 45.3927 37.6297C44.5212 39.6367 43.2985 41.405 41.5903 42.7658C40.5014 43.6332 39.2835 44.3466 38.0877 45.07C36.5077 46.0259 35.5384 47.3841 35.4783 49.2241C35.388 51.9853 36.6004 54.1113 39.0567 55.3848C41.4986 56.6509 43.8915 56.412 46.072 54.7055C51.4871 50.4674 58.1393 50.459 63.5844 54.7086C66.227 56.7711 69.7152 56.611 72.1537 54.3029C74.7234 51.8706 75.4292 46.9375 71.0206 44.7552C67.7368 43.1298 65.5433 40.5004 64.0226 37.1732C62.2508 33.2969 59.0427 31.4384 54.7719 31.2031Z" fill="white"/>
<path d="M52.9902 22.028C52.944 24.3342 52.4817 26.5287 51.1643 28.4703C50.0893 30.0549 48.6762 31.1625 46.6812 31.2231C44.5548 31.2877 43.0347 30.1688 41.9023 28.4886C40.3436 26.176 39.9063 23.5746 40.1233 20.8423C40.2745 18.9382 40.795 17.141 41.8851 15.5483C42.9791 13.9498 44.4047 12.8342 46.4267 12.7952C48.5278 12.7546 50.0186 13.874 51.1506 15.5285C52.4872 17.4822 52.95 19.6972 52.9902 22.028ZM41.9128 21.6267C41.9111 24.2696 42.605 26.459 43.7739 27.8754C45.4322 29.8848 47.5907 29.9049 49.2474 27.9067C50.4182 26.4947 50.9354 24.8141 51.0821 23.0228C51.289 20.4959 50.8612 18.1057 49.2146 16.0827C47.6193 14.1227 45.434 14.1389 43.8225 16.0911C42.4087 17.8039 41.9717 19.8454 41.9128 21.6267Z" fill="white"/>
<path d="M69.5993 22.0093C69.5519 24.3406 69.0883 26.535 67.7696 28.4757C66.6934 30.0594 65.279 31.1655 63.2836 31.2233C61.1573 31.2849 59.6386 30.1644 58.5076 28.4833C56.9508 26.1696 56.5145 23.5685 56.7328 20.836C56.8849 18.9318 57.4063 17.1349 58.4973 15.5431C59.5923 13.9453 61.0195 12.8313 63.0417 12.7951C65.1426 12.7575 66.6317 13.8786 67.7628 15.5338C69.0985 17.4885 69.5584 19.7039 69.5993 22.0093ZM58.5217 21.621C58.5186 24.2898 59.2217 26.4877 60.4147 27.9153C62.0598 29.8838 64.2087 29.89 65.8519 27.9116C67.024 26.5005 67.5421 24.8205 67.69 23.0292C67.8987 20.5023 67.4721 18.1119 65.8275 16.0877C64.2332 14.1255 62.0466 14.1381 60.4353 16.0862C59.0197 17.7978 58.5819 19.839 58.5217 21.621Z" fill="white"/>
<path d="M41.9097 34.334C41.8729 36.0755 41.3757 37.9797 40.1687 39.6613C37.7142 43.0809 33.5964 43.2051 30.947 39.9428C28.3083 36.6938 28.3586 31.1431 31.0557 27.9419C33.6701 24.8388 37.675 24.9753 40.0974 28.2501C41.2764 29.8441 41.916 31.8831 41.9097 34.334ZM30.84 33.6591C30.8377 36.0618 31.5436 37.997 32.7455 39.2208C34.3669 40.8718 36.5262 40.8827 38.144 39.2322C39.3271 38.0253 39.8684 36.5195 40.0142 34.8763C40.2133 32.6318 39.7773 30.5383 38.1928 28.8372C36.5772 27.1028 34.3555 27.1096 32.7219 28.8212C31.3442 30.2648 30.894 32.0623 30.84 33.6591Z" fill="white"/>
<path d="M67.749 33.6432C67.7973 31.6879 68.4054 29.5719 69.944 27.7826C72.2673 25.0806 75.9022 25.0056 78.322 27.6123C81.3201 30.8419 81.4593 36.6854 78.6182 40.0519C75.9763 43.1823 71.9631 43.0407 69.5408 39.7316C68.3763 38.1408 67.7481 36.1323 67.749 33.6432ZM69.5829 33.9693C69.6412 35.9557 70.1054 37.8063 71.5588 39.2736C73.1452 40.8752 75.2835 40.8618 76.8732 39.2581C78.0633 38.0575 78.613 36.5562 78.764 34.9123C78.9741 32.6249 78.5304 30.4983 76.8923 28.7808C75.2999 27.1112 73.1078 27.1308 71.5014 28.7947C70.1147 30.2311 69.6568 32.026 69.5829 33.9693Z" fill="white"/>
<path d="M49.2922 3.83231C49.1837 4.96492 49.4245 6.30951 50.0002 7.63408C50.5027 8.79001 50.2158 9.91676 49.3613 10.8339C48.5624 11.6915 47.5578 12.0644 46.386 11.7504C45.4072 11.4881 44.6982 10.6073 44.6904 9.59437C44.666 6.44447 45.6833 3.64654 47.6219 1.17583C47.8825 0.843762 48.2291 0.699293 48.6419 0.836876C49.0719 0.980188 49.2881 1.30089 49.2912 1.75468C49.2954 2.35 49.2922 2.94537 49.2922 3.83231ZM47.3224 5.3249C46.809 6.61888 46.5166 8.01098 46.5348 9.46158C46.5403 9.90206 46.8411 10.0532 47.2473 9.99898C48.0884 9.8868 48.5526 9.00593 48.2557 8.16173C47.9272 7.22782 47.6352 6.28109 47.3224 5.3249Z" fill="white"/>
<path d="M64.9715 8.88786C65.0042 10.6028 64.2382 11.6326 62.9543 11.8368C61.522 12.0645 59.975 11.0264 59.5673 9.56273C59.3754 8.87399 59.3688 8.17768 59.6827 7.53548C60.2565 6.36184 60.4269 5.13037 60.3719 3.84344C60.3432 3.17251 60.3719 2.4993 60.3655 1.82721C60.361 1.35303 60.5474 0.999838 61.004 0.842664C61.4693 0.682486 61.8157 0.885771 62.1017 1.25327C63.9029 3.56781 64.8563 6.19069 64.9715 8.88786ZM62.3354 5.34116C62.0234 6.28864 61.7073 7.2657 61.3795 8.23879C61.1137 9.02777 61.5752 9.85528 62.3759 9.99273C62.7741 10.0611 63.1105 9.93777 63.1198 9.49818C63.1508 8.03009 62.8612 6.61953 62.3354 5.34116Z" fill="white"/>
<path d="M36.3736 16.7488C36.2662 17.8802 36.5039 19.2253 37.0808 20.5498C37.5841 21.7054 37.2969 22.831 36.4449 23.7506C35.6638 24.5938 34.6775 24.9681 33.526 24.6828C32.4889 24.4258 31.7711 23.5266 31.7691 22.4578C31.7631 19.3299 32.7757 16.5501 34.7015 14.0961C34.962 13.7641 35.3077 13.6178 35.7208 13.7542C36.151 13.8963 36.369 14.2163 36.3725 14.6702C36.3771 15.2656 36.3736 15.8609 36.3736 16.7488ZM34.4023 18.2454C33.8979 19.5206 33.6155 20.8801 33.6134 22.293C33.6126 22.7954 33.9237 23.0144 34.4134 22.9041C35.2082 22.7249 35.6203 21.906 35.3448 21.1084C35.0153 20.1547 34.7125 19.1918 34.4023 18.2454Z" fill="white"/>
<path d="M77.8895 21.8158C77.9232 23.5374 77.1266 24.5891 75.8232 24.7625C74.3942 24.9525 72.8922 23.9301 72.4871 22.4889C72.2938 21.8011 72.2845 21.1045 72.5979 20.4614C73.1697 19.2878 73.346 18.0573 73.2899 16.7699C73.2606 16.099 73.2904 15.4257 73.2831 14.7537C73.278 14.2807 73.4582 13.9248 73.9142 13.7636C74.3786 13.5994 74.7283 13.7975 75.0146 14.1651C76.8164 16.4786 77.7732 19.1005 77.8895 21.8158ZM75.2524 18.2632C74.9409 19.2084 74.6236 20.1867 74.2959 21.1615C74.031 21.9495 74.4978 22.7782 75.2985 22.9118C75.6979 22.9785 76.0299 22.8515 76.0383 22.4118C76.0663 20.9444 75.7811 19.5338 75.2524 18.2632Z" fill="white"/>
<path d="M5.46279 65.382C6.15879 65.382 6.77079 65.538 7.29879 65.85C7.83879 66.162 8.25279 66.606 8.54079 67.182C8.84079 67.746 8.99079 68.394 8.99079 69.126C8.99079 69.846 8.84079 70.482 8.54079 71.034C8.25279 71.586 7.83879 72.018 7.29879 72.33C6.77079 72.63 6.16479 72.78 5.48079 72.78H3.26679C3.20679 72.78 3.17679 72.81 3.17679 72.87V77.784C3.17679 77.844 3.15279 77.898 3.10479 77.946C3.06879 77.982 3.02079 78 2.96079 78H1.30479C1.24479 78 1.19079 77.982 1.14279 77.946C1.10679 77.898 1.08879 77.844 1.08879 77.784V65.598C1.08879 65.538 1.10679 65.49 1.14279 65.454C1.19079 65.406 1.24479 65.382 1.30479 65.382H5.46279ZM5.15679 71.106C5.68479 71.106 6.10479 70.932 6.41679 70.584C6.74079 70.224 6.90279 69.75 6.90279 69.162C6.90279 68.562 6.74079 68.082 6.41679 67.722C6.10479 67.362 5.68479 67.182 5.15679 67.182H3.26679C3.20679 67.182 3.17679 67.212 3.17679 67.272V71.016C3.17679 71.076 3.20679 71.106 3.26679 71.106H5.15679ZM16.6474 78C16.5154 78 16.4314 77.94 16.3954 77.82L14.4514 72.654C14.4274 72.606 14.3974 72.582 14.3614 72.582H12.8134C12.7534 72.582 12.7234 72.612 12.7234 72.672V77.784C12.7234 77.844 12.6994 77.898 12.6514 77.946C12.6154 77.982 12.5674 78 12.5074 78H10.8514C10.7914 78 10.7374 77.982 10.6894 77.946C10.6534 77.898 10.6354 77.844 10.6354 77.784V65.616C10.6354 65.556 10.6534 65.508 10.6894 65.472C10.7374 65.424 10.7914 65.4 10.8514 65.4H15.0094C15.6934 65.4 16.2994 65.556 16.8274 65.868C17.3554 66.168 17.7634 66.6 18.0514 67.164C18.3394 67.716 18.4834 68.352 18.4834 69.072C18.4834 69.852 18.3034 70.53 17.9434 71.106C17.5834 71.682 17.0914 72.09 16.4674 72.33C16.4074 72.354 16.3894 72.396 16.4134 72.456L18.5374 77.748C18.5494 77.772 18.5554 77.808 18.5554 77.856C18.5554 77.952 18.4954 78 18.3754 78H16.6474ZM12.8134 67.2C12.7534 67.2 12.7234 67.23 12.7234 67.29V70.872C12.7234 70.932 12.7534 70.962 12.8134 70.962H14.7034C15.2074 70.962 15.6154 70.794 15.9274 70.458C16.2394 70.11 16.3954 69.654 16.3954 69.09C16.3954 68.514 16.2394 68.058 15.9274 67.722C15.6154 67.374 15.2074 67.2 14.7034 67.2H12.8134ZM20.5194 78C20.4594 78 20.4054 77.982 20.3574 77.946C20.3214 77.898 20.3034 77.844 20.3034 77.784V65.616C20.3034 65.556 20.3214 65.508 20.3574 65.472C20.4054 65.424 20.4594 65.4 20.5194 65.4H22.1754C22.2354 65.4 22.2834 65.424 22.3194 65.472C22.3674 65.508 22.3914 65.556 22.3914 65.616V77.784C22.3914 77.844 22.3674 77.898 22.3194 77.946C22.2834 77.982 22.2354 78 22.1754 78H20.5194ZM24.8963 78C24.8363 78 24.7823 77.982 24.7343 77.946C24.6983 77.898 24.6803 77.844 24.6803 77.784V65.616C24.6803 65.556 24.6983 65.508 24.7343 65.472C24.7823 65.424 24.8363 65.4 24.8963 65.4H28.6223C29.7863 65.4 30.7163 65.724 31.4123 66.372C32.1203 67.02 32.4743 67.884 32.4743 68.964V74.436C32.4743 75.516 32.1203 76.38 31.4123 77.028C30.7163 77.676 29.7863 78 28.6223 78H24.8963ZM26.7683 76.11C26.7683 76.17 26.7983 76.2 26.8583 76.2L28.6403 76.182C29.1563 76.182 29.5703 76.008 29.8823 75.66C30.1943 75.3 30.3623 74.814 30.3863 74.202V69.198C30.3863 68.586 30.2243 68.1 29.9003 67.74C29.5883 67.38 29.1683 67.2 28.6403 67.2H26.8583C26.7983 67.2 26.7683 67.23 26.7683 67.29V76.11ZM41.8518 66.984C41.8518 67.044 41.8278 67.098 41.7798 67.146C41.7438 67.182 41.6958 67.2 41.6358 67.2H36.6318C36.5718 67.2 36.5418 67.23 36.5418 67.29V70.674C36.5418 70.734 36.5718 70.764 36.6318 70.764H39.8358C39.8958 70.764 39.9438 70.788 39.9798 70.836C40.0278 70.872 40.0518 70.92 40.0518 70.98V72.348C40.0518 72.408 40.0278 72.462 39.9798 72.51C39.9438 72.546 39.8958 72.564 39.8358 72.564H36.6318C36.5718 72.564 36.5418 72.594 36.5418 72.654V76.11C36.5418 76.17 36.5718 76.2 36.6318 76.2H41.6358C41.6958 76.2 41.7438 76.224 41.7798 76.272C41.8278 76.308 41.8518 76.356 41.8518 76.416V77.784C41.8518 77.844 41.8278 77.898 41.7798 77.946C41.7438 77.982 41.6958 78 41.6358 78H34.6698C34.6098 78 34.5558 77.982 34.5078 77.946C34.4718 77.898 34.4538 77.844 34.4538 77.784V65.616C34.4538 65.556 34.4718 65.508 34.5078 65.472C34.5558 65.424 34.6098 65.4 34.6698 65.4H41.6358C41.6958 65.4 41.7438 65.424 41.7798 65.472C41.8278 65.508 41.8518 65.556 41.8518 65.616V66.984ZM46.8898 73.482C46.8298 73.482 46.7758 73.464 46.7278 73.428C46.6918 73.38 46.6738 73.326 46.6738 73.266V71.898C46.6738 71.838 46.6918 71.79 46.7278 71.754C46.7758 71.706 46.8298 71.682 46.8898 71.682H51.9478C52.0078 71.682 52.0558 71.706 52.0918 71.754C52.1398 71.79 52.1638 71.838 52.1638 71.898V73.266C52.1638 73.326 52.1398 73.38 52.0918 73.428C52.0558 73.464 52.0078 73.482 51.9478 73.482H46.8898ZM63.9079 78C63.7759 78 63.6919 77.94 63.6559 77.82L63.1879 75.894C63.1759 75.846 63.1459 75.822 63.0979 75.822H59.3899C59.3419 75.822 59.3119 75.846 59.2999 75.894L58.8499 77.82C58.8139 77.94 58.7299 78 58.5979 78H56.8879C56.7319 78 56.6719 77.922 56.7079 77.766L59.9839 65.58C60.0199 65.46 60.1039 65.4 60.2359 65.4H62.2879C62.4199 65.4 62.5039 65.46 62.5399 65.58L65.8159 77.766L65.8339 77.838C65.8339 77.946 65.7679 78 65.6359 78H63.9079ZM59.7319 74.076C59.7199 74.112 59.7259 74.142 59.7499 74.166C59.7739 74.178 59.7979 74.184 59.8219 74.184H62.6659C62.6899 74.184 62.7139 74.178 62.7379 74.166C62.7619 74.142 62.7679 74.112 62.7559 74.076L61.2799 68.172C61.2679 68.136 61.2499 68.118 61.2259 68.118C61.2019 68.118 61.1839 68.136 61.1719 68.172L59.7319 74.076ZM70.7688 78.144C69.9888 78.144 69.2988 77.988 68.6988 77.676C68.0988 77.352 67.6308 76.902 67.2948 76.326C66.9708 75.75 66.8088 75.084 66.8088 74.328V69.036C66.8088 68.28 66.9708 67.62 67.2948 67.056C67.6308 66.48 68.0988 66.036 68.6988 65.724C69.2988 65.412 69.9888 65.256 70.7688 65.256C71.5488 65.256 72.2388 65.412 72.8388 65.724C73.4388 66.024 73.9008 66.456 74.2248 67.02C74.5608 67.572 74.7288 68.22 74.7288 68.964V69.072C74.7288 69.132 74.7048 69.186 74.6568 69.234C74.6208 69.282 74.5728 69.306 74.5128 69.306L72.8388 69.378C72.6948 69.378 72.6228 69.306 72.6228 69.162V68.946C72.6228 68.382 72.4488 67.926 72.1008 67.578C71.7648 67.23 71.3208 67.056 70.7688 67.056C70.2048 67.056 69.7488 67.23 69.4008 67.578C69.0648 67.926 68.8968 68.382 68.8968 68.946V74.472C68.8968 75.036 69.0648 75.492 69.4008 75.84C69.7488 76.176 70.2048 76.344 70.7688 76.344C71.3208 76.344 71.7648 76.176 72.1008 75.84C72.4488 75.492 72.6228 75.036 72.6228 74.472V74.238C72.6228 74.106 72.6948 74.04 72.8388 74.04L74.5128 74.112C74.5728 74.112 74.6208 74.136 74.6568 74.184C74.7048 74.22 74.7288 74.268 74.7288 74.328V74.4C74.7288 75.144 74.5608 75.804 74.2248 76.38C73.9008 76.944 73.4388 77.382 72.8388 77.694C72.2388 77.994 71.5488 78.144 70.7688 78.144ZM83.9681 65.4C84.0281 65.4 84.0761 65.424 84.1121 65.472C84.1601 65.508 84.1841 65.556 84.1841 65.616V67.002C84.1841 67.062 84.1601 67.116 84.1121 67.164C84.0761 67.2 84.0281 67.218 83.9681 67.218H81.1781C81.1181 67.218 81.0881 67.248 81.0881 67.308V77.784C81.0881 77.844 81.0641 77.898 81.0161 77.946C80.9801 77.982 80.9321 78 80.8721 78H79.2161C79.1561 78 79.1021 77.982 79.0541 77.946C79.0181 77.898 79.0001 77.844 79.0001 77.784V67.308C79.0001 67.248 78.9701 67.218 78.9101 67.218H76.2281C76.1681 67.218 76.1141 67.2 76.0661 67.164C76.0301 67.116 76.0121 67.062 76.0121 67.002V65.616C76.0121 65.556 76.0301 65.508 76.0661 65.472C76.1141 65.424 76.1681 65.4 76.2281 65.4H83.9681ZM86.1034 78C86.0434 78 85.9894 77.982 85.9414 77.946C85.9054 77.898 85.8874 77.844 85.8874 77.784V65.616C85.8874 65.556 85.9054 65.508 85.9414 65.472C85.9894 65.424 86.0434 65.4 86.1034 65.4H87.7594C87.8194 65.4 87.8674 65.424 87.9034 65.472C87.9514 65.508 87.9754 65.556 87.9754 65.616V77.784C87.9754 77.844 87.9514 77.898 87.9034 77.946C87.8674 77.982 87.8194 78 87.7594 78H86.1034ZM93.0723 78C92.9403 78 92.8563 77.94 92.8203 77.82L89.6343 65.634V65.562C89.6343 65.454 89.7003 65.4 89.8323 65.4H91.6143C91.7343 65.4 91.8123 65.46 91.8483 65.58L93.9723 74.634C93.9843 74.682 94.0023 74.706 94.0263 74.706C94.0503 74.706 94.0683 74.682 94.0803 74.634L96.1503 65.598C96.1863 65.466 96.2643 65.4 96.3843 65.4H98.1303C98.2863 65.4 98.3463 65.478 98.3103 65.634L95.1243 77.82C95.0883 77.94 95.0043 78 94.8723 78H93.0723ZM107.313 66.984C107.313 67.044 107.289 67.098 107.241 67.146C107.205 67.182 107.157 67.2 107.097 67.2H102.093C102.033 67.2 102.003 67.23 102.003 67.29V70.674C102.003 70.734 102.033 70.764 102.093 70.764H105.297C105.357 70.764 105.405 70.788 105.441 70.836C105.489 70.872 105.513 70.92 105.513 70.98V72.348C105.513 72.408 105.489 72.462 105.441 72.51C105.405 72.546 105.357 72.564 105.297 72.564H102.093C102.033 72.564 102.003 72.594 102.003 72.654V76.11C102.003 76.17 102.033 76.2 102.093 76.2H107.097C107.157 76.2 107.205 76.224 107.241 76.272C107.289 76.308 107.313 76.356 107.313 76.416V77.784C107.313 77.844 107.289 77.898 107.241 77.946C107.205 77.982 107.157 78 107.097 78H100.131C100.071 78 100.017 77.982 99.9687 77.946C99.9327 77.898 99.9147 77.844 99.9147 77.784V65.616C99.9147 65.556 99.9327 65.508 99.9687 65.472C100.017 65.424 100.071 65.4 100.131 65.4H107.097C107.157 65.4 107.205 65.424 107.241 65.472C107.289 65.508 107.313 65.556 107.313 65.616V66.984Z" fill="white"/>
</svg>
