<svg width="24" height="24" viewBox="0 0 24 24" fill="none" xmlns="http://www.w3.org/2000/svg">
<path d="M4.55258 3.57251C3.84753 3.81196 3.16909 4.03811 2.49064 4.25096C1.78559 4.47711 1.13375 4.07802 1.01403 3.37297C0.934209 2.89407 1.20027 2.37526 1.67917 2.20232C2.82321 1.80323 3.98056 1.41745 5.15121 1.04497C5.74984 0.858731 6.36177 1.27112 6.4948 1.90966C6.61452 2.45507 6.70764 2.98719 6.82737 3.57251C7.18655 3.506 7.53242 3.43948 7.86499 3.37297C9.40812 3.067 10.9513 2.76104 12.4944 2.46838C13.2127 2.33535 13.7449 2.68122 13.8912 3.39957C14.104 4.42389 14.2903 5.44821 14.4898 6.48584C14.5031 6.56565 14.5164 6.63217 14.543 6.73859C15.0618 6.64547 15.5673 6.55235 16.0729 6.44593C16.3788 6.39272 16.6848 6.3262 16.9907 6.25969C17.7357 6.12666 18.2678 6.47253 18.4142 7.21749C18.7334 8.84044 19.0527 10.4767 19.372 12.0996C19.5981 13.257 19.8243 14.4276 20.0504 15.585C20.0504 15.6116 20.077 15.6515 20.0903 15.7047C20.5825 15.6249 21.0747 15.5318 21.5669 15.4653C21.7399 15.4387 21.9261 15.3987 22.1123 15.412C22.6844 15.4653 23.0968 15.9043 23.1234 16.4497C23.15 17.035 22.7775 17.5006 22.1922 17.607C21.5536 17.7267 20.9151 17.8199 20.2765 17.9263C18.3609 18.2456 16.432 18.5648 14.5164 18.8841C13.7449 19.0171 12.96 19.1501 12.1884 19.2699C12.0288 19.2965 11.9756 19.363 11.949 19.5093C11.5366 21.1855 9.91363 22.2896 8.25078 22.0236C6.4948 21.7442 5.27094 20.2277 5.41727 18.4717C5.49709 17.4474 5.97599 16.6226 6.81407 16.024C6.9737 15.9043 7.02691 15.8111 6.987 15.6116C6.18883 11.6739 5.40397 7.74961 4.6191 3.81196C4.60579 3.75875 4.57919 3.67893 4.55258 3.57251ZM17.8953 16.1038C17.4031 13.6029 16.9242 11.1418 16.4453 8.6542C13.6783 9.18632 10.9246 9.70512 8.15766 10.2372C8.50353 11.94 8.8361 13.6162 9.15537 15.279C9.18197 15.4387 9.26179 15.4919 9.40812 15.5185C10.2994 15.7047 10.9912 16.1836 11.4967 16.9419C11.6031 17.1015 11.6962 17.1414 11.8958 17.1148C13.093 16.902 14.3036 16.7157 15.5008 16.5162C16.2857 16.3699 17.0706 16.2368 17.8953 16.1038ZM11.9224 4.86289C10.3659 5.16885 8.8228 5.46152 7.26636 5.76748C7.426 6.53905 7.57233 7.28401 7.73196 8.05557C9.2884 7.74961 10.8315 7.45694 12.3747 7.15098C12.215 6.36611 12.0687 5.62115 11.9224 4.86289ZM7.62554 18.7511C7.62554 19.363 8.10444 19.8552 8.71638 19.8685C9.315 19.8818 9.82051 19.3763 9.82051 18.7644C9.82051 18.1524 9.32831 17.6602 8.72968 17.6469C8.11775 17.6469 7.62554 18.1391 7.62554 18.7511Z" fill="white"/>
</svg>
